<svg id="Layer_1" style="enable-background:new 0 0 64 64;" version="1.1" viewBox="0 0 64 64" xml:space="preserve" xmlns="http://www.w3.org/2000/svg" xmlns:xlink="http://www.w3.org/1999/xlink">
  <g fill="#f3f3f3">
    <path  d="M44.52515,7.62993h-9.85742V6.37261l-0.03564-1.03564h-5.16895V5.29009c0-3.11715-2.66445-5.50818-5.69189-5.27441   c-2.67822,0.20068-4.7876,2.52148-4.87354,5.32129h-4.19189l-1.03564,0.03564v2.25732H3.81519   c-1.1084,0-2.01025,0.90185-2.01025,2.01025v52.3501c0,1.1084,0.90186,2.00977,2.01025,2.00977h40.70996   c1.1084,0,2.00977-0.90137,2.00977-2.00977V9.64019C46.53491,8.53179,45.63354,7.62993,44.52515,7.62993z M12.97974,38.0064   l-2.60938-2.60889l1.41406-1.41406l1.19531,1.19482l3.09717-3.09717l1.41406,1.41406L12.97974,38.0064z M17.49097,44.0728   l-4.51123,4.51123l-2.60938-2.60938l1.41406-1.41406l1.19531,1.19531l3.09717-3.09717L17.49097,44.0728z M12.97974,28.48247   l-2.60938-2.60889l1.41406-1.41406l1.19531,1.19482l3.09717-3.09717l1.41406,1.41406L12.97974,28.48247z M21.15405,44.26763   h13.87109v2H21.15405V44.26763z M21.15405,35.69048v-2h13.87109v2H21.15405z M21.15405,26.16655v-2h13.87109v2H21.15405z    M15.67017,7.33696h4.18896l1.03564-0.03564V5.5147c0-1.83789,1.3291-3.37744,3.02588-3.50488   c1.91513-0.137,3.54248,1.36737,3.54248,3.28027v2.04688h5.20459v4.91162H15.67017V7.33696z M44.52515,62.00005L3.80493,61.99028   L3.81519,9.62993h9.85498v2.76013H7.96509c-0.57001,0-1.02002,0.45001-1.02002,1.01001v44.83002   c0,0.54999,0.45001,1.01001,1.02002,1.01001h24.5v-7.92999c0-0.54999,0.45001-1,1-1h7.94V13.40007   c0-0.56-0.46002-1.01001-1.02002-1.01001h-5.71735V9.63085l9.86719,0.00934L44.52515,62.00005z"></path>
    <path d="M24.17163,4.03862c-0.70807,0-1.28455,0.57599-1.28455,1.28406c0,0.70813,0.57648,1.28461,1.28455,1.28461   c0.70813,0,1.28412-0.57648,1.28412-1.28461C25.45575,4.61461,24.87976,4.03862,24.17163,4.03862z"></path>
    <polygon points="34.46509,58.2401 40.40509,52.31011 34.46509,52.31011  "></polygon>
    <path d="M61.19507,23.75011h-2.5v-1.48004c0-2.69-2.19-4.87-4.88-4.87c-2.67999,0-4.87,2.17999-4.87,4.87   c0,11.37687,0,22.71949,0,32.75c0,0.16003,0.04004,0.31,0.10004,0.44l3.87,7.98004c0.16998,0.33997,0.51996,0.56,0.89996,0.56   c0.39001,0,0.74005-0.22004,0.90002-0.56l3.88-7.98004c0.05707-0.11426,0.09998-0.30704,0.09998-0.44V25.75011h1.5v12.01001   c0,0.54999,0.45001,1,1,1c0.55005,0,1-0.45001,1-1V24.75011C62.19507,24.20012,61.74512,23.75011,61.19507,23.75011z    M50.94507,22.27007c0-1.57996,1.29004-2.87,2.87-2.87c1.59003,0,2.88,1.29004,2.88,2.87v1.48004h-5.75V22.27007z    M53.81506,60.71007l-2.26996-4.69h4.54999L53.81506,60.71007z"></path>
  </g>
</svg>