<?xml version="1.0" encoding="utf-8"?>
<svg version="1.0" width="888.000000pt" height="888.000000pt" viewBox="0 0 888.000000 888.000000" preserveAspectRatio="xMidYMid meet" xmlns="http://www.w3.org/2000/svg">
  <g transform="translate(0.000000,888.000000) scale(0.100000,-0.100000)" fill="#437798" stroke="none">
    <path d="M0 4440 l0 -4440 4440 0 4440 0 0 4440 0 4440 -4440 0 -4440 0 0 -4440z m7227 2587 c43 -16 88 -59 113 -106 19 -38 20 -58 20 -361 0 -267 -3 -327 -15 -358 -20 -47 -50 -78 -100 -105 l-40 -22 -2845 0 -2845 0 -48 28 c-26 15 -60 47 -75 69 l-27 41 -3 333 c-3 314 -2 336 17 371 24 47 66 87 111 107 31 13 358 15 2870 15 2145 0 2843 -3 2867 -12z m-17 -2137 c49 -13 109 -66 131 -114 17 -37 19 -71 19 -364 0 -300 -1 -325 -19 -361 -26 -50 -81 -97 -128 -110 -51 -14 -5653 -15 -5703 -1 -49 13 -109 66 -131 114 -17 37 -19 71 -19 361 0 290 2 324 19 361 21 46 81 100 126 113 43 13 5660 14 5705 1z m1 -2141 c52 -16 103 -61 128 -112 20 -41 21 -59 21 -366 0 -355 -1 -361 -67 -423 -66 -63 175 -58 -2938 -58 -2787 0 -2836 0 -2874 19 -49 26 -97 81 -111 128 -8 25 -10 145 -8 359 l3 321 27 41 c31 46 60 68 116 88 50 18 5642 21 5703 3z" style="paint-order: stroke;" />
  </g>
</svg>